<mxfile host="Electron" modified="2024-03-14T20:09:50.342Z" agent="Mozilla/5.0 (Macintosh; Intel Mac OS X 10_15_7) AppleWebKit/537.36 (KHTML, like Gecko) draw.io/23.1.5 Chrome/120.0.6099.109 Electron/28.1.0 Safari/537.36" etag="Y1Deqd3ONERLTtHbQdR-" version="23.1.5" type="device">
  <diagram name="Page-1" id="oxucrU7OrjIVGSNrrpAX">
    <mxGraphModel dx="1722" dy="2696" grid="1" gridSize="10" guides="1" tooltips="1" connect="1" arrows="1" fold="1" page="1" pageScale="1" pageWidth="850" pageHeight="1100" math="0" shadow="0">
      <root>
        <mxCell id="0" />
        <mxCell id="1" parent="0" />
        <mxCell id="VObRKSS0OaEOFp-tihr_-1" value="Mijoz" style="swimlane;horizontal=0;whiteSpace=wrap;html=1;" parent="1" vertex="1">
          <mxGeometry y="-330" width="2540" height="500" as="geometry" />
        </mxCell>
        <mxCell id="VObRKSS0OaEOFp-tihr_-6" value="" style="edgeStyle=orthogonalEdgeStyle;rounded=0;orthogonalLoop=1;jettySize=auto;html=1;" parent="VObRKSS0OaEOFp-tihr_-1" source="VObRKSS0OaEOFp-tihr_-4" target="VObRKSS0OaEOFp-tihr_-5" edge="1">
          <mxGeometry relative="1" as="geometry" />
        </mxCell>
        <mxCell id="VObRKSS0OaEOFp-tihr_-4" value="" style="ellipse;whiteSpace=wrap;html=1;aspect=fixed;" parent="VObRKSS0OaEOFp-tihr_-1" vertex="1">
          <mxGeometry x="60" y="200" width="80" height="80" as="geometry" />
        </mxCell>
        <mxCell id="VObRKSS0OaEOFp-tihr_-10" value="" style="edgeStyle=orthogonalEdgeStyle;rounded=0;orthogonalLoop=1;jettySize=auto;html=1;" parent="VObRKSS0OaEOFp-tihr_-1" source="VObRKSS0OaEOFp-tihr_-5" target="VObRKSS0OaEOFp-tihr_-9" edge="1">
          <mxGeometry relative="1" as="geometry" />
        </mxCell>
        <mxCell id="VObRKSS0OaEOFp-tihr_-5" value="Qaytarish formasini to&#39;ldiradi." style="whiteSpace=wrap;html=1;" parent="VObRKSS0OaEOFp-tihr_-1" vertex="1">
          <mxGeometry x="200" y="210" width="120" height="60" as="geometry" />
        </mxCell>
        <mxCell id="VObRKSS0OaEOFp-tihr_-9" value="Jo&#39;natish" style="whiteSpace=wrap;html=1;" parent="VObRKSS0OaEOFp-tihr_-1" vertex="1">
          <mxGeometry x="400" y="210" width="120" height="60" as="geometry" />
        </mxCell>
        <mxCell id="VObRKSS0OaEOFp-tihr_-31" value="" style="edgeStyle=orthogonalEdgeStyle;rounded=0;orthogonalLoop=1;jettySize=auto;html=1;" parent="VObRKSS0OaEOFp-tihr_-1" source="VObRKSS0OaEOFp-tihr_-26" target="VObRKSS0OaEOFp-tihr_-30" edge="1">
          <mxGeometry relative="1" as="geometry">
            <Array as="points">
              <mxPoint x="600" y="340" />
            </Array>
          </mxGeometry>
        </mxCell>
        <mxCell id="VObRKSS0OaEOFp-tihr_-26" value="" style="verticalLabelPosition=bottom;verticalAlign=top;html=1;shape=mxgraph.flowchart.on-page_reference;" parent="VObRKSS0OaEOFp-tihr_-1" vertex="1">
          <mxGeometry x="570" y="210" width="60" height="60" as="geometry" />
        </mxCell>
        <mxCell id="VObRKSS0OaEOFp-tihr_-35" value="" style="edgeStyle=orthogonalEdgeStyle;rounded=0;orthogonalLoop=1;jettySize=auto;html=1;" parent="VObRKSS0OaEOFp-tihr_-1" source="VObRKSS0OaEOFp-tihr_-27" target="VObRKSS0OaEOFp-tihr_-34" edge="1">
          <mxGeometry relative="1" as="geometry">
            <Array as="points">
              <mxPoint x="600" y="140" />
            </Array>
          </mxGeometry>
        </mxCell>
        <mxCell id="VObRKSS0OaEOFp-tihr_-27" value="" style="whiteSpace=wrap;html=1;shape=mxgraph.basic.pentagon" parent="VObRKSS0OaEOFp-tihr_-1" vertex="1">
          <mxGeometry x="580" y="220" width="40" height="40" as="geometry" />
        </mxCell>
        <mxCell id="VObRKSS0OaEOFp-tihr_-28" style="edgeStyle=orthogonalEdgeStyle;rounded=0;orthogonalLoop=1;jettySize=auto;html=1;entryX=0;entryY=0.5;entryDx=0;entryDy=0;entryPerimeter=0;" parent="VObRKSS0OaEOFp-tihr_-1" source="VObRKSS0OaEOFp-tihr_-9" target="VObRKSS0OaEOFp-tihr_-26" edge="1">
          <mxGeometry relative="1" as="geometry" />
        </mxCell>
        <mxCell id="VObRKSS0OaEOFp-tihr_-39" value="" style="edgeStyle=orthogonalEdgeStyle;rounded=0;orthogonalLoop=1;jettySize=auto;html=1;" parent="VObRKSS0OaEOFp-tihr_-1" source="VObRKSS0OaEOFp-tihr_-30" target="VObRKSS0OaEOFp-tihr_-38" edge="1">
          <mxGeometry relative="1" as="geometry" />
        </mxCell>
        <mxCell id="VObRKSS0OaEOFp-tihr_-30" value="rad javobini oladi" style="whiteSpace=wrap;html=1;verticalAlign=top;" parent="VObRKSS0OaEOFp-tihr_-1" vertex="1">
          <mxGeometry x="620" y="310" width="120" height="60" as="geometry" />
        </mxCell>
        <mxCell id="VObRKSS0OaEOFp-tihr_-45" value="" style="edgeStyle=orthogonalEdgeStyle;rounded=0;orthogonalLoop=1;jettySize=auto;html=1;" parent="VObRKSS0OaEOFp-tihr_-1" source="VObRKSS0OaEOFp-tihr_-34" target="VObRKSS0OaEOFp-tihr_-44" edge="1">
          <mxGeometry relative="1" as="geometry" />
        </mxCell>
        <mxCell id="VObRKSS0OaEOFp-tihr_-34" value="almashtirishda davom ettiradi" style="whiteSpace=wrap;html=1;" parent="VObRKSS0OaEOFp-tihr_-1" vertex="1">
          <mxGeometry x="620" y="110" width="120" height="60" as="geometry" />
        </mxCell>
        <mxCell id="VObRKSS0OaEOFp-tihr_-38" value="" style="ellipse;whiteSpace=wrap;html=1;verticalAlign=top;strokeWidth=10;" parent="VObRKSS0OaEOFp-tihr_-1" vertex="1">
          <mxGeometry x="840" y="300" width="80" height="80" as="geometry" />
        </mxCell>
        <mxCell id="VObRKSS0OaEOFp-tihr_-46" style="edgeStyle=orthogonalEdgeStyle;rounded=0;orthogonalLoop=1;jettySize=auto;html=1;dashed=1;dashPattern=8 8;" parent="VObRKSS0OaEOFp-tihr_-1" source="VObRKSS0OaEOFp-tihr_-44" edge="1">
          <mxGeometry relative="1" as="geometry">
            <mxPoint x="1120" y="790" as="targetPoint" />
          </mxGeometry>
        </mxCell>
        <mxCell id="VObRKSS0OaEOFp-tihr_-54" value="" style="edgeStyle=orthogonalEdgeStyle;rounded=0;orthogonalLoop=1;jettySize=auto;html=1;" parent="VObRKSS0OaEOFp-tihr_-1" source="VObRKSS0OaEOFp-tihr_-44" target="VObRKSS0OaEOFp-tihr_-53" edge="1">
          <mxGeometry relative="1" as="geometry">
            <Array as="points">
              <mxPoint x="1400" y="140" />
              <mxPoint x="1400" y="225" />
            </Array>
          </mxGeometry>
        </mxCell>
        <mxCell id="VObRKSS0OaEOFp-tihr_-44" value="mahsulotni yuboradi" style="whiteSpace=wrap;html=1;" parent="VObRKSS0OaEOFp-tihr_-1" vertex="1">
          <mxGeometry x="1060" y="110" width="120" height="60" as="geometry" />
        </mxCell>
        <mxCell id="VObRKSS0OaEOFp-tihr_-58" value="" style="edgeStyle=orthogonalEdgeStyle;rounded=0;orthogonalLoop=1;jettySize=auto;html=1;" parent="VObRKSS0OaEOFp-tihr_-1" source="VObRKSS0OaEOFp-tihr_-53" target="VObRKSS0OaEOFp-tihr_-57" edge="1">
          <mxGeometry relative="1" as="geometry">
            <Array as="points">
              <mxPoint x="1720" y="60" />
            </Array>
          </mxGeometry>
        </mxCell>
        <mxCell id="VObRKSS0OaEOFp-tihr_-60" value="" style="edgeStyle=orthogonalEdgeStyle;rounded=0;orthogonalLoop=1;jettySize=auto;html=1;" parent="VObRKSS0OaEOFp-tihr_-1" source="VObRKSS0OaEOFp-tihr_-53" target="VObRKSS0OaEOFp-tihr_-59" edge="1">
          <mxGeometry relative="1" as="geometry" />
        </mxCell>
        <mxCell id="VObRKSS0OaEOFp-tihr_-53" value="" style="rhombus;whiteSpace=wrap;html=1;" parent="VObRKSS0OaEOFp-tihr_-1" vertex="1">
          <mxGeometry x="1620" y="140" width="210" height="170" as="geometry" />
        </mxCell>
        <mxCell id="VObRKSS0OaEOFp-tihr_-55" value="" style="ellipse;whiteSpace=wrap;html=1;aspect=fixed;" parent="VObRKSS0OaEOFp-tihr_-1" vertex="1">
          <mxGeometry x="1685" y="185" width="80" height="80" as="geometry" />
        </mxCell>
        <mxCell id="VObRKSS0OaEOFp-tihr_-72" style="edgeStyle=orthogonalEdgeStyle;rounded=0;orthogonalLoop=1;jettySize=auto;html=1;exitX=1;exitY=0.5;exitDx=0;exitDy=0;entryX=0.5;entryY=0;entryDx=0;entryDy=0;" parent="VObRKSS0OaEOFp-tihr_-1" source="VObRKSS0OaEOFp-tihr_-57" target="VObRKSS0OaEOFp-tihr_-61" edge="1">
          <mxGeometry relative="1" as="geometry" />
        </mxCell>
        <mxCell id="VObRKSS0OaEOFp-tihr_-57" value="Pul" style="whiteSpace=wrap;html=1;" parent="VObRKSS0OaEOFp-tihr_-1" vertex="1">
          <mxGeometry x="1850" y="30" width="120" height="60" as="geometry" />
        </mxCell>
        <mxCell id="VObRKSS0OaEOFp-tihr_-62" value="" style="edgeStyle=orthogonalEdgeStyle;rounded=0;orthogonalLoop=1;jettySize=auto;html=1;" parent="VObRKSS0OaEOFp-tihr_-1" source="VObRKSS0OaEOFp-tihr_-59" target="VObRKSS0OaEOFp-tihr_-61" edge="1">
          <mxGeometry relative="1" as="geometry" />
        </mxCell>
        <mxCell id="VObRKSS0OaEOFp-tihr_-59" value="yangi mahsulot" style="whiteSpace=wrap;html=1;" parent="VObRKSS0OaEOFp-tihr_-1" vertex="1">
          <mxGeometry x="1850" y="195" width="120" height="60" as="geometry" />
        </mxCell>
        <mxCell id="VObRKSS0OaEOFp-tihr_-70" value="" style="edgeStyle=orthogonalEdgeStyle;rounded=0;orthogonalLoop=1;jettySize=auto;html=1;" parent="VObRKSS0OaEOFp-tihr_-1" source="VObRKSS0OaEOFp-tihr_-61" target="VObRKSS0OaEOFp-tihr_-69" edge="1">
          <mxGeometry relative="1" as="geometry" />
        </mxCell>
        <mxCell id="VObRKSS0OaEOFp-tihr_-61" value="tanlagan mahsulotini aytadi" style="whiteSpace=wrap;html=1;" parent="VObRKSS0OaEOFp-tihr_-1" vertex="1">
          <mxGeometry x="2050" y="195" width="120" height="60" as="geometry" />
        </mxCell>
        <mxCell id="VObRKSS0OaEOFp-tihr_-74" style="edgeStyle=orthogonalEdgeStyle;rounded=0;orthogonalLoop=1;jettySize=auto;html=1;exitX=1;exitY=0.5;exitDx=0;exitDy=0;entryX=0;entryY=0.5;entryDx=0;entryDy=0;" parent="VObRKSS0OaEOFp-tihr_-1" source="VObRKSS0OaEOFp-tihr_-69" target="VObRKSS0OaEOFp-tihr_-73" edge="1">
          <mxGeometry relative="1" as="geometry" />
        </mxCell>
        <mxCell id="VObRKSS0OaEOFp-tihr_-69" value="Qabul qilib oladi" style="whiteSpace=wrap;html=1;" parent="VObRKSS0OaEOFp-tihr_-1" vertex="1">
          <mxGeometry x="2260" y="195" width="120" height="60" as="geometry" />
        </mxCell>
        <mxCell id="VObRKSS0OaEOFp-tihr_-73" value="" style="ellipse;whiteSpace=wrap;html=1;verticalAlign=top;strokeWidth=10;" parent="VObRKSS0OaEOFp-tihr_-1" vertex="1">
          <mxGeometry x="2450" y="185" width="80" height="80" as="geometry" />
        </mxCell>
        <mxCell id="VObRKSS0OaEOFp-tihr_-2" value="Mijoz xizmati agenti" style="swimlane;horizontal=0;whiteSpace=wrap;html=1;" parent="1" vertex="1">
          <mxGeometry y="280" width="2550" height="430" as="geometry" />
        </mxCell>
        <mxCell id="VObRKSS0OaEOFp-tihr_-16" value="" style="edgeStyle=orthogonalEdgeStyle;rounded=0;orthogonalLoop=1;jettySize=auto;html=1;exitX=1;exitY=0.5;exitDx=0;exitDy=0;" parent="VObRKSS0OaEOFp-tihr_-2" source="VObRKSS0OaEOFp-tihr_-17" edge="1">
          <mxGeometry relative="1" as="geometry">
            <mxPoint x="520" y="215" as="sourcePoint" />
            <mxPoint x="600" y="215" as="targetPoint" />
          </mxGeometry>
        </mxCell>
        <mxCell id="VObRKSS0OaEOFp-tihr_-17" value="" style="ellipse;whiteSpace=wrap;html=1;aspect=fixed;" parent="VObRKSS0OaEOFp-tihr_-2" vertex="1">
          <mxGeometry x="420" y="175" width="80" height="80" as="geometry" />
        </mxCell>
        <mxCell id="VObRKSS0OaEOFp-tihr_-21" value="" style="edgeStyle=orthogonalEdgeStyle;rounded=0;orthogonalLoop=1;jettySize=auto;html=1;" parent="VObRKSS0OaEOFp-tihr_-2" source="VObRKSS0OaEOFp-tihr_-18" target="VObRKSS0OaEOFp-tihr_-20" edge="1">
          <mxGeometry relative="1" as="geometry" />
        </mxCell>
        <mxCell id="VObRKSS0OaEOFp-tihr_-22" value="ha" style="edgeLabel;html=1;align=center;verticalAlign=middle;resizable=0;points=[];" parent="VObRKSS0OaEOFp-tihr_-21" vertex="1" connectable="0">
          <mxGeometry x="-0.3829" y="-2" relative="1" as="geometry">
            <mxPoint x="-1" as="offset" />
          </mxGeometry>
        </mxCell>
        <mxCell id="VObRKSS0OaEOFp-tihr_-24" value="yo&#39;q" style="edgeStyle=orthogonalEdgeStyle;rounded=0;orthogonalLoop=1;jettySize=auto;html=1;" parent="VObRKSS0OaEOFp-tihr_-2" source="VObRKSS0OaEOFp-tihr_-18" target="VObRKSS0OaEOFp-tihr_-23" edge="1">
          <mxGeometry relative="1" as="geometry" />
        </mxCell>
        <mxCell id="VObRKSS0OaEOFp-tihr_-18" value="Qaytarish mezonlariga mos keladimi" style="rhombus;whiteSpace=wrap;html=1;" parent="VObRKSS0OaEOFp-tihr_-2" vertex="1">
          <mxGeometry x="600" y="150" width="160" height="130" as="geometry" />
        </mxCell>
        <mxCell id="VObRKSS0OaEOFp-tihr_-43" value="" style="edgeStyle=orthogonalEdgeStyle;rounded=0;orthogonalLoop=1;jettySize=auto;html=1;" parent="VObRKSS0OaEOFp-tihr_-2" source="VObRKSS0OaEOFp-tihr_-20" target="VObRKSS0OaEOFp-tihr_-42" edge="1">
          <mxGeometry relative="1" as="geometry" />
        </mxCell>
        <mxCell id="VObRKSS0OaEOFp-tihr_-20" value="Qaytarish amalga oshiriladi" style="whiteSpace=wrap;html=1;" parent="VObRKSS0OaEOFp-tihr_-2" vertex="1">
          <mxGeometry x="860" y="185" width="120" height="60" as="geometry" />
        </mxCell>
        <mxCell id="VObRKSS0OaEOFp-tihr_-23" value="Mijozga xabar beradi" style="whiteSpace=wrap;html=1;" parent="VObRKSS0OaEOFp-tihr_-2" vertex="1">
          <mxGeometry x="620" y="20" width="120" height="60" as="geometry" />
        </mxCell>
        <mxCell id="VObRKSS0OaEOFp-tihr_-48" value="" style="edgeStyle=orthogonalEdgeStyle;rounded=0;orthogonalLoop=1;jettySize=auto;html=1;" parent="VObRKSS0OaEOFp-tihr_-2" source="VObRKSS0OaEOFp-tihr_-42" target="VObRKSS0OaEOFp-tihr_-47" edge="1">
          <mxGeometry relative="1" as="geometry" />
        </mxCell>
        <mxCell id="VObRKSS0OaEOFp-tihr_-42" value="Mahsulotni qabul qiladi" style="whiteSpace=wrap;html=1;" parent="VObRKSS0OaEOFp-tihr_-2" vertex="1">
          <mxGeometry x="1060" y="185" width="120" height="60" as="geometry" />
        </mxCell>
        <mxCell id="VObRKSS0OaEOFp-tihr_-50" value="" style="edgeStyle=orthogonalEdgeStyle;rounded=0;orthogonalLoop=1;jettySize=auto;html=1;" parent="VObRKSS0OaEOFp-tihr_-2" source="VObRKSS0OaEOFp-tihr_-47" target="VObRKSS0OaEOFp-tihr_-49" edge="1">
          <mxGeometry relative="1" as="geometry" />
        </mxCell>
        <mxCell id="VObRKSS0OaEOFp-tihr_-47" value="Mahsulot holati tekshiriladi" style="whiteSpace=wrap;html=1;" parent="VObRKSS0OaEOFp-tihr_-2" vertex="1">
          <mxGeometry x="1260" y="185" width="120" height="60" as="geometry" />
        </mxCell>
        <mxCell id="VObRKSS0OaEOFp-tihr_-52" value="" style="edgeStyle=orthogonalEdgeStyle;rounded=0;orthogonalLoop=1;jettySize=auto;html=1;" parent="VObRKSS0OaEOFp-tihr_-2" source="VObRKSS0OaEOFp-tihr_-49" target="VObRKSS0OaEOFp-tihr_-51" edge="1">
          <mxGeometry relative="1" as="geometry" />
        </mxCell>
        <mxCell id="VObRKSS0OaEOFp-tihr_-49" value="Ombor hisobiga kiritiladi" style="whiteSpace=wrap;html=1;" parent="VObRKSS0OaEOFp-tihr_-2" vertex="1">
          <mxGeometry x="1460" y="185" width="120" height="60" as="geometry" />
        </mxCell>
        <mxCell id="VObRKSS0OaEOFp-tihr_-65" value="" style="edgeStyle=orthogonalEdgeStyle;rounded=0;orthogonalLoop=1;jettySize=auto;html=1;" parent="VObRKSS0OaEOFp-tihr_-2" source="VObRKSS0OaEOFp-tihr_-51" target="VObRKSS0OaEOFp-tihr_-64" edge="1">
          <mxGeometry relative="1" as="geometry" />
        </mxCell>
        <mxCell id="VObRKSS0OaEOFp-tihr_-51" value="Mijozga puli yoki yangi mahsulot kerkaligini biladi" style="whiteSpace=wrap;html=1;" parent="VObRKSS0OaEOFp-tihr_-2" vertex="1">
          <mxGeometry x="1660" y="185" width="120" height="60" as="geometry" />
        </mxCell>
        <mxCell id="VObRKSS0OaEOFp-tihr_-68" value="" style="edgeStyle=orthogonalEdgeStyle;rounded=0;orthogonalLoop=1;jettySize=auto;html=1;" parent="VObRKSS0OaEOFp-tihr_-2" source="VObRKSS0OaEOFp-tihr_-64" target="VObRKSS0OaEOFp-tihr_-67" edge="1">
          <mxGeometry relative="1" as="geometry" />
        </mxCell>
        <mxCell id="VObRKSS0OaEOFp-tihr_-64" value="Qabul qiladi" style="whiteSpace=wrap;html=1;" parent="VObRKSS0OaEOFp-tihr_-2" vertex="1">
          <mxGeometry x="2060" y="185" width="120" height="60" as="geometry" />
        </mxCell>
        <mxCell id="VObRKSS0OaEOFp-tihr_-67" value="So&#39;ragan narsanini qaytarib berdi" style="whiteSpace=wrap;html=1;" parent="VObRKSS0OaEOFp-tihr_-2" vertex="1">
          <mxGeometry x="2260" y="185" width="120" height="60" as="geometry" />
        </mxCell>
        <mxCell id="VObRKSS0OaEOFp-tihr_-14" value="" style="edgeStyle=orthogonalEdgeStyle;rounded=0;orthogonalLoop=1;jettySize=auto;html=1;entryX=0.5;entryY=0;entryDx=0;entryDy=0;dashed=1;" parent="1" source="VObRKSS0OaEOFp-tihr_-9" target="VObRKSS0OaEOFp-tihr_-17" edge="1">
          <mxGeometry relative="1" as="geometry">
            <mxPoint x="460" y="290" as="targetPoint" />
          </mxGeometry>
        </mxCell>
        <mxCell id="VObRKSS0OaEOFp-tihr_-36" style="edgeStyle=orthogonalEdgeStyle;rounded=0;orthogonalLoop=1;jettySize=auto;html=1;exitX=0.5;exitY=0;exitDx=0;exitDy=0;entryX=0.5;entryY=1;entryDx=0;entryDy=0;dashed=1;" parent="1" source="VObRKSS0OaEOFp-tihr_-23" target="VObRKSS0OaEOFp-tihr_-30" edge="1">
          <mxGeometry relative="1" as="geometry" />
        </mxCell>
        <mxCell id="VObRKSS0OaEOFp-tihr_-56" style="edgeStyle=orthogonalEdgeStyle;rounded=0;orthogonalLoop=1;jettySize=auto;html=1;exitX=0.5;exitY=0;exitDx=0;exitDy=0;entryX=0.5;entryY=1;entryDx=0;entryDy=0;dashed=1;dashPattern=8 8;" parent="1" source="VObRKSS0OaEOFp-tihr_-51" target="VObRKSS0OaEOFp-tihr_-53" edge="1">
          <mxGeometry relative="1" as="geometry" />
        </mxCell>
        <mxCell id="VObRKSS0OaEOFp-tihr_-66" style="edgeStyle=orthogonalEdgeStyle;rounded=0;orthogonalLoop=1;jettySize=auto;html=1;exitX=0.5;exitY=1;exitDx=0;exitDy=0;entryX=0.407;entryY=0.008;entryDx=0;entryDy=0;entryPerimeter=0;dashed=1;" parent="1" source="VObRKSS0OaEOFp-tihr_-61" target="VObRKSS0OaEOFp-tihr_-64" edge="1">
          <mxGeometry relative="1" as="geometry" />
        </mxCell>
        <mxCell id="VObRKSS0OaEOFp-tihr_-71" style="edgeStyle=orthogonalEdgeStyle;rounded=0;orthogonalLoop=1;jettySize=auto;html=1;exitX=0.5;exitY=0;exitDx=0;exitDy=0;entryX=0.5;entryY=1;entryDx=0;entryDy=0;dashed=1;" parent="1" source="VObRKSS0OaEOFp-tihr_-67" target="VObRKSS0OaEOFp-tihr_-69" edge="1">
          <mxGeometry relative="1" as="geometry" />
        </mxCell>
      </root>
    </mxGraphModel>
  </diagram>
</mxfile>
